HIERARCHY
ROOT pelvis
{
	OFFSET 0.000000 0.000000 0.000000
	CHANNELS 6 Xposition Yposition Zposition Zrotation Xrotation Yrotation
	JOINT lfemur
	{
		OFFSET 11.446000 0.000000 0.000000
		CHANNELS 3 Zrotation Xrotation Yrotation
		JOINT ltibia
		{
			OFFSET 0.000000 -42.030400 0.000000
			CHANNELS 3 Zrotation Xrotation Yrotation
			JOINT lfoot
			{
				OFFSET 0.000000 -39.930200 0.000000
				CHANNELS 3 Zrotation Xrotation Yrotation
				JOINT ltoes
				{
					OFFSET 0.000000 0.000000 11.775800
					CHANNELS 3 Zrotation Xrotation Yrotation
					End Site
					{
					    OFFSET 0.000000 0.000000 5.000000
					}
				}
			}
		}
	}
	JOINT rfemur
	{
		OFFSET -11.446000 0.000000 0.000000
		CHANNELS 3 Zrotation Xrotation Yrotation
		JOINT rtibia
		{
			OFFSET 0.000000 -42.030400 0.000000
			CHANNELS 3 Zrotation Xrotation Yrotation
			JOINT rfoot
			{
				OFFSET 0.000000 -39.930200 0.000000
				CHANNELS 3 Zrotation Xrotation Yrotation
				JOINT rtoes
				{
					OFFSET 0.000000 0.000000 11.775800
					CHANNELS 3 Zrotation Xrotation Yrotation
					End Site
					{
					    OFFSET 0.000000 0.000000 5.000000
					}
				}
			}
		}
	}
	JOINT thorax
	{
		OFFSET 0.000000 11.255600 -5.000000
		CHANNELS 3 Zrotation Xrotation Yrotation
		JOINT head
		{
			OFFSET 0.000000 43.799300 0.000000
			CHANNELS 3 Zrotation Xrotation Yrotation
			End Site
			{
			    OFFSET 0.000000 5.000000 0.000000
			}
		}
		JOINT lclavicle
		{
			OFFSET 0.000000 39.863000 0.000000
			CHANNELS 3 Zrotation Xrotation Yrotation
			JOINT lhumerus
			{
				OFFSET 17.380600 4.958300 0.000000
				CHANNELS 3 Zrotation Xrotation Yrotation
				JOINT lradius
				{
					OFFSET 0.000000 -27.561300 0.000000
					CHANNELS 3 Zrotation Xrotation Yrotation
					JOINT lhand
					{
						OFFSET 0.000000 -26.933000 0.000000
						CHANNELS 3 Zrotation Xrotation Yrotation
						End Site
						{
						    OFFSET 0.000000 -5.000000 0.000000
						}
					}
				}
			}
		}
		JOINT rclavicle
		{
			OFFSET 0.000000 39.863000 0.000000
			CHANNELS 3 Zrotation Xrotation Yrotation
			JOINT rhumerus
			{
				OFFSET -17.380600 4.958300 0.000000
				CHANNELS 3 Zrotation Xrotation Yrotation
				JOINT rradius
				{
					OFFSET 0.000000 -27.561300 0.000000
					CHANNELS 3 Zrotation Xrotation Yrotation
					JOINT rhand
					{
						OFFSET 0.000000 -26.933000 0.000000
						CHANNELS 3 Zrotation Xrotation Yrotation
						End Site
						{
						    OFFSET 0.000000 -5.000000 0.000000
						}
					}
				}
			}
		}
	}
}
MOTION
Frames:	18
Frame Time:	0.0333333
-50.504000 74.329500 -4.327300 5.516927 -1.067348 -56.060986 -0.390300 -24.825123 -3.041867 -0.000000 89.198662 0.000000 -0.000000 -7.503497 12.453803 0.000000 -1.239624 -0.000000 -13.102387 -49.654297 -10.051551 -0.000000 65.660821 -0.000000 -0.000000 -4.051761 0.347452 -0.000000 -29.567834 -0.000000 -6.244838 15.225765 -8.217838 13.217550 13.164112 3.440042 -9.320923 0.000000 3.012250 30.434260 -18.000518 -45.407099 -180.000037 -50.698147 162.812797 16.118989 -9.798157 0.000000 23.618448 -0.000000 1.736870 -41.246923 -7.072572 22.387355 180.000027 -46.450462 -146.539404 -33.396164 7.835891 0.000000 
-47.973600 75.829000 -3.806000 5.158556 -0.957778 -54.710990 2.539872 -20.836358 -3.748612 0.000000 83.821479 0.000000 -0.000000 -5.838872 10.511973 -0.000000 -1.272941 -0.000000 -14.371368 -47.406153 -10.180786 0.000000 60.063685 -0.000000 -0.000000 -0.139220 -0.320869 0.000000 -29.569982 -0.000000 -6.319411 14.442040 -8.830888 14.201227 14.936705 2.918646 -9.243517 -0.000000 3.069860 32.042545 -17.255737 -45.562829 -180.000037 -50.806247 163.776990 16.354169 -9.782875 -0.000000 24.083274 0.000000 1.241174 -42.209444 -4.937651 21.991641 -180.000035 -46.613401 -146.342654 -33.386352 7.831709 0.000000 
-44.504900 78.231500 -3.266300 5.500195 -0.451707 -54.243694 3.967016 -17.936217 -4.210771 0.000000 75.110213 -0.000000 0.000000 -2.407821 5.333164 -0.000000 -1.392103 -0.000000 -14.550113 -44.551728 -8.083182 -0.000000 50.224980 -0.000000 0.000000 6.522427 -1.108875 0.000000 -29.571464 0.000000 -6.364715 13.208017 -8.962932 15.317389 17.292497 2.468649 -9.390730 -0.000000 3.267634 33.685881 -15.809911 -45.586499 -180.000037 -51.086128 163.435791 16.010449 -10.217983 0.000000 24.903258 -0.000000 0.434605 -42.972956 -4.121093 21.740584 180.000036 -47.224884 -147.604615 -32.609834 7.567630 0.000000 
-40.397200 80.864400 -2.696200 6.427922 0.596743 -54.924407 3.608577 -16.106689 -5.342315 0.000000 64.548771 -0.000000 0.000000 1.611296 0.163932 -0.000000 -1.521350 -0.000000 -13.621103 -41.094515 -4.075786 0.000000 36.785644 -0.000000 0.000000 14.521322 -2.121167 0.000000 -29.566772 -0.000000 -6.199424 11.457338 -8.535945 16.224536 19.645403 2.434660 -10.111951 0.000000 3.637359 35.765402 -13.483429 -45.071814 180.000037 -50.379367 164.679930 15.133438 -10.668190 -0.000000 25.804550 0.000000 -0.183142 -43.582842 -4.182497 21.679954 180.000030 -47.832184 -147.719267 -32.533406 7.542033 0.000000 
-36.377600 82.633800 -2.018200 7.294893 1.454259 -56.046031 2.530716 -14.199468 -6.638305 0.000000 53.999449 -0.000000 0.000000 7.878617 -2.247332 -0.000000 -1.609408 -0.000000 -13.160987 -38.945720 -3.437037 -0.000000 29.860825 -0.000000 -0.000000 11.964072 -0.096064 -0.000000 -29.570487 -0.000000 -6.137080 10.066277 -7.993371 16.933518 21.475542 2.410281 -10.901594 0.000000 3.333225 37.668664 -9.560282 -43.570738 180.000037 -48.879108 164.666173 15.079459 -10.911405 -0.000000 26.812202 0.000000 0.174928 -44.179481 -4.333617 20.769453 180.000036 -47.239707 -150.116755 -31.437023 7.169944 -0.000000 
-32.145900 83.026400 -1.352200 8.175830 2.394125 -57.992396 1.092034 -13.553755 -7.202139 -0.000000 49.346300 -0.000000 -0.000000 2.000412 -0.107892 -0.000000 -1.691374 0.000000 -13.084914 -42.998702 -8.602258 -0.000000 40.594435 -0.000000 0.000000 6.904345 -1.137743 -0.000000 -29.575084 -0.000000 -5.325245 8.518624 -3.701291 18.785817 21.816025 -0.340406 -10.962864 0.000000 -0.426998 36.720836 -5.221080 -42.116224 180.000036 -47.916878 163.086973 14.726218 -11.148273 -0.000000 26.700917 -0.000000 -1.739933 -45.456503 -6.014818 17.972337 180.000037 -46.035682 -150.717301 -32.153320 7.413382 0.000000 
-27.769700 82.030600 -1.030400 8.652044 2.829913 -60.464044 -0.383739 -14.713281 -6.230209 0.000000 48.738932 0.000000 0.000000 -5.125694 2.501931 0.000000 -1.730941 -0.000000 -13.222134 -49.012036 -12.622756 -0.000000 60.383639 -0.000000 0.000000 3.423825 0.541699 0.000000 -29.568049 -0.000000 -5.277460 8.035582 -1.602263 20.134875 21.967834 -0.830212 -9.477625 0.000000 0.780246 34.174724 -4.994524 -41.378773 180.000037 -47.964476 162.308253 15.036341 -10.769050 0.000000 25.109315 -0.000000 -0.741187 -44.327376 -6.832232 16.786728 180.000037 -44.773246 -149.482550 -32.596325 7.565564 0.000000 
-23.539000 80.279100 -0.948000 8.311142 2.258724 -61.196876 -1.967101 -17.197445 -4.857240 -0.000000 51.552530 0.000000 0.000000 -12.584728 3.359077 0.000000 -1.693683 -0.000000 -14.287111 -52.303123 -16.254146 -0.000000 80.065400 -0.000000 -0.000000 -0.061217 2.997785 -0.000000 -29.574708 -0.000000 -6.283931 8.965587 -1.008429 21.713225 21.861028 -0.882761 -7.626619 -0.000000 2.926577 30.435024 -7.336750 -41.613919 180.000036 -49.651704 162.327416 13.814259 -10.139628 0.000000 24.018763 0.000000 0.292710 -42.648938 -6.479311 16.046321 180.000036 -43.188678 -151.851143 -31.490622 7.190116 0.000000 
-19.370800 78.977200 -0.895000 9.959896 1.443432 -59.676384 -5.547274 -22.192396 -5.893464 -0.000000 54.742304 -0.000000 0.000000 -15.847220 3.535765 -0.000000 -1.638308 -0.000000 -18.424206 -53.267350 -22.586465 -180.000037 86.776603 -180.000037 -0.000000 -2.404641 4.871058 0.000000 -29.579923 0.000000 -8.457917 9.663722 -1.001654 23.567035 19.819974 -1.543743 -7.724339 0.000000 3.450042 28.262247 -11.287098 -43.428136 -180.000033 -50.981482 162.712614 12.991283 -10.373276 -0.000000 25.048938 0.000000 -0.760571 -42.384346 -6.905862 15.214385 180.000036 -42.110995 -150.400565 -32.469785 7.522237 -0.000000 
-15.386400 78.004800 -0.916000 11.031384 0.708429 -56.913233 -9.645581 -26.451908 -8.853250 -0.000000 57.507903 -0.000000 -0.000000 -16.677100 3.298300 -0.000000 -1.589596 -0.000000 -21.295140 -50.997182 -27.530397 -180.000037 81.855253 -180.000037 -0.000000 -0.089364 6.987938 0.000000 -29.588252 -0.000000 -10.547641 11.218558 -4.668393 23.586107 18.158207 0.241634 -8.489171 -0.000000 5.489723 27.949030 -14.560501 -45.088565 -180.000035 -51.016659 162.980356 12.723456 -10.421738 -0.000000 26.869498 -0.000000 1.357731 -41.226801 -4.013979 15.524085 -180.000037 -41.306847 -149.201733 -32.548386 7.544097 0.000000 
-11.779000 77.315800 -1.035100 12.366091 -0.189194 -57.182811 -13.465687 -29.540356 -11.071396 -0.000000 58.594217 -0.000000 -0.000000 -17.464649 4.124138 0.000000 -1.566731 -0.000000 -19.213619 -49.752648 -24.963432 -180.000037 84.153318 -180.000037 -0.000000 1.209450 7.238063 -0.000000 -29.595513 -0.000000 -12.540394 12.104436 -4.276106 23.655698 16.264125 0.701331 -8.617174 0.000000 4.930267 26.549073 -15.547398 -46.025774 -180.000037 -51.014932 163.122285 12.501221 -10.436760 0.000000 27.278613 -0.000000 1.124884 -39.560847 -2.832964 15.952608 -180.000037 -41.969099 -150.287025 -32.410465 7.496802 -0.000000 
-8.174800 76.896600 -1.118300 13.185026 -0.915685 -58.077026 -17.663232 -32.279644 -14.701074 -0.000000 59.788490 -0.000000 -0.000000 -16.919760 6.380555 -0.000000 -1.484906 0.000000 -15.669231 -48.264351 -18.740319 -0.000000 87.528039 0.000000 -0.000000 1.910233 5.159534 0.000000 -29.594123 -0.000000 -13.581197 13.353632 -4.152261 22.545154 14.643600 2.106677 -8.509362 0.000000 4.725524 25.781622 -15.860474 -45.997213 -180.000035 -50.961898 163.113918 12.321799 -10.176303 0.000000 27.435515 0.000000 1.139915 -38.785531 -3.251185 17.160299 -180.000032 -43.496937 -147.043536 -33.302438 7.799799 -0.000000 
-4.836200 76.572100 -1.384300 13.333701 -0.804288 -59.461255 -19.866101 -35.025213 -16.887642 -0.000000 60.977449 -0.000000 0.000000 -16.272643 7.812814 -0.000000 -1.450753 -0.000000 -11.197286 -46.838507 -11.279453 0.000000 80.215131 0.000000 -0.000000 -3.433904 4.482964 -0.000000 -29.589458 -0.000000 -13.455860 14.311612 -3.938181 21.152684 13.548810 3.468141 -8.123205 0.000000 4.737896 25.690375 -15.570629 -45.186266 -180.000032 -50.977006 162.513198 11.842704 -10.225046 -0.000000 27.544779 -0.000000 2.458211 -38.781916 -3.121397 17.230975 -180.000034 -43.282757 -148.787873 -32.072222 7.381210 -0.000000 
-1.760100 76.334300 -1.511000 13.555527 -1.037787 -60.250139 -22.283399 -37.249882 -18.991454 -0.000000 61.620183 -0.000000 0.000000 -14.857002 8.515128 -0.000000 -1.431609 0.000000 -10.075682 -46.825476 -7.888307 -0.000000 77.332299 -0.000000 -0.000000 -7.768465 2.950949 0.000000 -29.583967 -0.000000 -13.619629 14.963088 -4.071607 20.226481 13.075837 4.733954 -7.344055 -0.000000 3.749514 26.306867 -14.477901 -44.261193 180.000036 -50.832805 163.383891 12.312837 -10.282038 -0.000000 27.670287 0.000000 2.664255 -39.077912 -4.476057 17.661270 -180.000035 -43.669133 -149.309873 -31.860708 7.307621 -0.000000 
1.253800 76.162600 -1.454200 13.525811 -0.702880 -59.893996 -24.750449 -39.392401 -21.944645 -0.000000 62.387541 -0.000000 0.000000 -12.667579 8.312188 0.000000 -1.413324 -0.000000 -11.544566 -47.930728 -9.389299 -0.000000 75.495306 0.000000 0.000000 -8.943315 1.412494 0.000000 -29.576976 -0.000000 -12.575092 15.489168 -4.838354 19.406215 12.541864 5.275374 -7.075991 -0.000000 3.449331 27.109291 -14.928129 -44.290377 -180.000036 -51.342499 162.678764 12.695514 -9.758528 -0.000000 27.442099 -0.000000 1.630543 -39.205457 -6.815630 18.098337 -180.000037 -44.606478 -148.433800 -31.939605 7.335593 0.000000 
4.104000 76.128600 -1.476900 13.055631 0.045877 -58.963367 -25.331075 -41.376822 -21.859924 -0.000000 62.480336 -0.000000 0.000000 -10.687400 6.720374 0.000000 -1.401157 -0.000000 -12.928597 -47.866590 -11.834367 0.000000 72.478055 0.000000 -0.000000 -10.143121 0.239814 0.000000 -29.569650 -0.000000 -11.068122 16.121023 -5.865818 19.206628 12.004259 5.755363 -7.008065 -0.000000 3.325253 27.778553 -15.956223 -44.231299 -180.000037 -51.656533 163.230987 12.731959 -9.865480 0.000000 27.675516 -0.000000 1.924700 -40.465911 -7.193823 16.674093 -180.000032 -44.275918 -149.282040 -30.757703 6.933652 0.000000 
6.957400 76.455500 -1.175900 13.195664 0.056395 -57.834118 -25.676648 -42.759194 -19.722588 0.000000 61.525080 -0.000000 0.000000 -8.819883 3.193990 -0.000000 -1.454111 -0.000000 -15.174847 -46.206374 -14.005488 0.000000 67.087874 0.000000 0.000000 -13.582938 -0.575731 0.000000 -29.566775 -0.000000 -10.381437 16.417562 -6.770419 19.016143 11.400082 6.022766 -7.233291 0.000000 3.671690 28.368843 -17.553681 -44.541802 -180.000036 -52.505627 162.877624 12.938863 -10.078593 -0.000000 27.275942 -0.000000 1.678828 -41.643073 -6.647283 15.535592 -180.000032 -44.651027 -148.804608 -30.699571 6.915018 -0.000000 
9.889000 77.360100 -0.630400 13.105873 -0.191153 -57.440191 -24.651635 -43.106876 -15.829691 -0.000000 62.330414 0.000000 0.000000 -7.549346 2.751656 -0.000000 -1.541622 0.000000 -16.423210 -45.480040 -13.520111 0.000000 62.880613 0.000000 -0.000000 -11.783012 -1.374317 -0.000000 -29.567533 0.000000 -9.897856 16.123850 -7.079371 18.509384 11.624976 5.720380 -7.408052 0.000000 3.197620 28.609820 -17.760208 -43.719904 -180.000034 -53.136115 163.184410 13.267069 -10.039072 0.000000 26.890349 0.000000 1.099603 -43.385615 -4.880456 15.157721 180.000037 -45.182279 -149.003188 -31.302261 7.121489 -0.000000 
